# xmcd CD database file
#
# Track frame offsets:
#	150
#	12834
#	29024
#	40664
#	50125
#	64605
#	72883
#	81867
#	86842
#	94797
#	107005
#	119705
#	130560
#	147477
#	159477
#	169854
#	188038
#	195538
#	206483
#	219084
#	234973
#	244049
#	247571
#	253336
#	258072
#
# Disc length: 3536 seconds
#
# Revision: 0
# Processed by: cddbd v1.5.2PL0 Copyright (c) Steve Scherf et al.
# Submitted via: CDex 1.74
#
DISCID=550dce19
DTITLE=Johnny Cash - The Very Best of Johnny Cash [CD3]
DYEAR=2013
DGENRE=Country
TTITLE0=Ring of Fire (Live)
TTITLE1=A Boy Named Sue (Live)
TTITLE2=I Walk the Line (Live)
TTITLE3=Goodbye Little Darlin (Live)
TTITLE4=Ballad of Ira Hayes (Live)
TTITLE5=Get Rhythm (Live)
TTITLE6=Luther Played the Boogie (Live)
TTITLE7=Cry Cry Cry (Live
TTITLE8=I Got Stripes (Live)
TTITLE9=Folsom Prison Blues (Live)
TTITLE10=Peace in the Valley (Live)
TTITLE11=Rock Island Line (Live)
TTITLE12=Sunday Morning Coming Down (Live)
TTITLE13=Sixteen Tons (Live)
TTITLE14=If I Were a Carpenter (Live)
TTITLE15=Orange Blossom Special (LIve)
TTITLE16=Johnny Cash Show Intro and Theme
TTITLE17=Folsom Prison Blues (Hayride Radio Session)
TTITLE18=So Doggone Lonesome (LIve at Big "D" Jamboree, Dallas Texas)
TTITLE19=I Walk The Line (Live at Big "D" Jamboree, Dallas, Texas)
TTITLE20=Get Rhythm (Live at Big "D" Jamboree, Dallas, Texas)
TTITLE21=Radio KWEM Advertisement
TTITLE22=Radio Home Equipment Advertiesment
TTITLE23=Overton Park Shell Country Musice Jamboree (Radio Ad)
TTITLE24=Closing Comments and Theme
EXTD=YEAR: 2013
EXTT0=
EXTT1=
EXTT2=
EXTT3=
EXTT4=
EXTT5=
EXTT6=
EXTT7=
EXTT8=
EXTT9=
EXTT10=
EXTT11=
EXTT12=
EXTT13=
EXTT14=
EXTT15=
EXTT16=
EXTT17=
EXTT18=
EXTT19=
EXTT20=
EXTT21=
EXTT22=
EXTT23=
EXTT24=
PLAYORDER=
